<?xml version="1.0"?>
<svg version="1.1" xmlns="http://www.w3.org/2000/svg" width="400px" height="200px" style="border: dashed 2px #aaa"><path fill="#" d="M52.94873046875,140.3154296875q0-1.69189453125,1.16015625-2.151123046875t2.513671875-0.459228515625q2.36865234375,0,4.01220703125,2.126953125t3.117919921875,4.664794921875t2.924560546875,4.664794921875t3.43212890625,2.126953125q1.49853515625,0,2.731201171875-0.749267578125t2.126953125-1.88525390625t1.377685546875-2.56201171875t0.4833984375-2.827880859375q0-3.673828125-1.474365234375-7.58935546875t-3.7705078125-8.07275390625t-4.858154296875-8.5078125t-4.833984375-8.84619140625t-3.7705078125-9.160400390625t-1.49853515625-9.402099609375q0-7.10595703125,4.25390625-11.021484375t11.21484375-3.91552734375q2.36865234375,0,4.78564453125,0.6767578125t4.447265625,2.0302734375t3.311279296875,3.33544921875t1.281005859375,4.640625q0,0.8701171875-1.281005859375,1.135986328125t-1.861083984375,0.265869140625q-0.8701171875,0-1.88525390625-0.217529296875t-1.30517578125-1.184326171875t-0.82177734375-2.2236328125t-1.329345703125-2.344482421875t-1.88525390625-1.88525390625t-2.392822265625-0.797607421875q-2.17529296875,0-3.697998046875,0.894287109375t-2.46533203125,2.392822265625t-1.40185546875,3.359619140625t-0.459228515625,3.843017578125q0,4.640625,1.59521484375,9.353759765625t3.9638671875,9.3779296875t5.148193359375,9.208740234375t5.148193359375,8.84619140625t3.9638671875,8.4111328125t1.59521484375,7.78271484375q0,3.287109375-1.546875,5.55908203125t-3.91552734375,3.697998046875t-5.244873046875,2.07861328125t-5.631591796875,0.652587890625q-2.94873046875,0-6.04248046875-1.184326171875t-5.55908203125-3.262939453125t-4.060546875-4.858154296875t-1.59521484375-6.018310546875z M96.438637695313,113.97021484375q0-2.27197265625,0.894287109375-3.359619140625t3.262939453125-1.087646484375q1.40185546875,0,2.634521484375,0.580078125t1.232666015625,2.46533203125q0.193359375,2.75537109375,0.193359375,5.776611328125t0.53173828125,5.728271484375q1.20849609375-1.98193359375,2.731201171875-3.9638671875t3.359619140625-3.52880859375t4.01220703125-2.489501953125t4.7373046875-0.942626953125q3.48046875,0,5.8974609375,1.4501953125t3.988037109375,3.7705078125t2.27197265625,5.244873046875t0.700927734375,5.873291015625q0,4.5439453125-1.377685546875,7.420166015625t-3.649658203125,4.519775390625t-5.148193359375,2.2236328125t-5.776611328125,0.580078125q-2.56201171875,0-4.78564453125-0.990966796875t-3.09375-3.746337890625q0-0.7734375,1.135986328125-0.966796875t1.619384765625-0.193359375q1.59521484375,0,2.36865234375,0.8701171875q0.580078125,0.6767578125,1.281005859375,1.377685546875t1.474365234375,0.700927734375q1.49853515625,0,3.14208984375-0.845947265625t3.021240234375-2.2236328125t2.3203125-3.262939453125t0.942626953125-3.8671875q0-1.69189453125-0.2900390625-4.20556640625t-0.990966796875-4.833984375t-1.93359375-4.01220703125t-3.117919921875-1.69189453125q-2.85205078125,0-5.148193359375,2.6103515625t-3.81884765625,6.2841796875t-2.36865234375,7.6376953125t-0.845947265625,6.62255859375t0.33837890625,6.71923828125t0.700927734375,8.435302734375t0.700927734375,8.435302734375t0.33837890625,6.71923828125q0,0.6767578125-0.555908203125,1.087646484375t-1.329345703125,0.652587890625t-1.571044921875,0.2900390625t-1.184326171875,0.04833984375q-1.30517578125,0-2.731201171875-0.2900390625t-1.957763671875-1.78857421875q-0.6767578125-2.36865234375-1.2568359375-6.743408203125t-1.039306640625-9.66796875t-0.797607421875-11.1181640625t-0.580078125-11.239013671875t-0.362548828125-9.90966796875t-0.120849609375-7.154296875z M141.81379882813,132.3876953125q0-2.75537109375,0.700927734375-5.679931640625t2.2236328125-5.26904296875t3.843017578125-3.81884765625t5.607421875-1.474365234375q2.46533203125,0,5.196533203125,0.845947265625t5.003173828125,2.4169921875t3.697998046875,3.843017578125t1.426025390625,5.07568359375q0,3.3837890625-1.232666015625,6.42919921875t-3.456298828125,5.438232421875t-5.196533203125,3.7705078125t-6.453369140625,1.377685546875q-2.85205078125,0-4.97900390625-1.039306640625t-3.552978515625-2.779541015625t-2.126953125-4.10888671875t-0.700927734375-5.02734375z M148.91975585938,132.291015625q0,0.8701171875,0.265869140625,2.56201171875t0.797607421875,3.311279296875t1.377685546875,2.8037109375t2.054443359375,1.087646484375q2.56201171875-0.2900390625,4.229736328125-1.667724609375t2.70703125-3.359619140625t1.4501953125-4.30224609375t0.410888671875-4.39892578125q0-2.65869140625-1.039306640625-4.447265625t-3.407958984375-2.900390625q0,0.0966796875,0.0966796875,0.0966796875t0.0966796875-0.0966796875l-1.20849609375-0.2900390625q-0.4833984375-0.193359375-1.184326171875-0.43505859375t-1.377685546875-1.0634765625q-1.88525390625,0.6767578125-2.924560546875,1.740234375t-1.571044921875,2.586181640625t-0.652587890625,3.649658203125t-0.120849609375,5.1240234375z M178.43944824219,117.93408203125q0-1.98193359375,0.700927734375-3.33544921875t2.972900390625-1.353515625q0.8701171875,0,2.17529296875,0.265869140625t1.49853515625,1.329345703125q0.4833984375,2.85205078125,0.53173828125,6.1875t0.33837890625,6.2841796875q1.11181640625-2.17529296875,2.85205078125-4.68896484375t3.9638671875-4.640625t4.833984375-3.52880859375t5.3173828125-1.40185546875q0.193359375,0,0.72509765625,0.14501953125t0.990966796875,0.410888671875t0.555908203125,0.604248046875t-0.53173828125,0.62841796875q-0.193359375,0.580078125-0.82177734375,0.700927734375t-1.11181640625,0.120849609375q-0.2900390625,0-0.91845703125-0.24169921875q-3.5771484375,1.88525390625-6.0908203125,5.1240234375t-4.10888671875,7.178466796875t-2.3203125,8.314453125t-0.72509765625,8.531982421875q0,2.07861328125-0.942626953125,2.513671875t-3.021240234375,0.43505859375q-1.11181640625,0-2.344482421875-0.24169921875t-1.716064453125-1.546875q-0.8701171875-2.75537109375-1.426025390625-6.33251953125t-0.845947265625-7.371826171875t-0.410888671875-7.468505859375t-0.120849609375-6.62255859375z M210.81119140625,100.7734375q0-0.6767578125,1.4501953125-1.16015625t3.287109375-0.797607421875t3.552978515625-0.459228515625t2.344482421875-0.24169921875q0-1.30517578125,0.0966796875-2.634521484375t0.53173828125-2.36865234375t1.377685546875-1.667724609375t2.634521484375-0.62841796875q1.40185546875,0,2.126953125,0.33837890625t1.546875,1.40185546875q0.193359375,0.580078125,0.193359375,1.11181640625l0,1.619384765625t-0.0966796875,1.667724609375q1.78857421875-0.193359375,3.552978515625-0.459228515625t3.552978515625-0.265869140625q1.30517578125,0,1.78857421875,0.04833984375t0.966796875,1.16015625q0.38671875,1.11181640625-0.942626953125,1.69189453125t-3.1904296875,0.8701171875t-3.697998046875,0.43505859375t-2.2236328125,0.14501953125q-0.580078125,8.314453125-1.184326171875,16.48388671875t-0.604248046875,16.58056640625q0,3.7705078125,0.24169921875,7.78271484375t1.353515625,7.58935546875q0.2900390625,1.11181640625,0.966796875,2.07861328125t0.6767578125,2.07861328125q0,0.6767578125-0.53173828125,1.0634765625t-1.281005859375,0.652587890625t-1.49853515625,0.314208984375t-1.232666015625,0.04833984375q-3.04541015625,0-4.640625-2.27197265625t-2.296142578125-5.438232421875t-0.749267578125-6.501708984375t-0.04833984375-5.4140625q0-4.25390625,0.169189453125-8.701171875t0.410888671875-8.7978515625t0.6767578125-8.5078125t1.01513671875-7.734375q-1.69189453125,0.193359375-3.311279296875,0.43505859375t-3.311279296875,0.24169921875q-0.38671875,0-1.039306640625-0.04833984375t-1.232666015625-0.24169921875t-0.990966796875-0.53173828125t-0.410888671875-0.966796875z M247.77521972656,130.30908203125q0-4.447265625,1.039306640625-8.725341796875t1.764404296875-8.531982421875q0.193359375-1.11181640625,1.522705078125-1.377685546875t2.247802734375-0.265869140625q1.59521484375,0,2.56201171875,0.4833984375q0.38671875,0.193359375,0.72509765625,0.43505859375t0.33837890625,0.62841796875q0,4.1572265625-0.990966796875,8.12109375t-0.990966796875,8.4111328125q0,1.49853515625,0.217529296875,2.827880859375t0.410888671875,2.634521484375l0.2900390625,1.40185546875q0,0.38671875,0.04833984375,0.6767578125t0.14501953125,0.6767578125q0,0.8701171875-1.232666015625,1.184326171875t-2.151123046875,0.314208984375q-1.40185546875,0-2.586181640625-0.555908203125t-1.861083984375-1.909423828125l-0.6767578125-1.40185546875q-0.580078125-1.11181640625-0.580078125-2.489501953125t-0.24169921875-2.537841796875z M250.86896972656,101.20849609375l0-0.91845703125q0-2.27197265625,1.135986328125-4.060546875t3.407958984375-1.78857421875q0.2900390625,0,0.555908203125,0.04833984375t0.555908203125,0.04833984375q0.580078125,0.0966796875,1.522705078125,0.459228515625t0.942626953125,1.135986328125l0,0.0966796875q-0.193359375,0.38671875-0.24169921875,0.797607421875t-0.24169921875,0.700927734375l0.0966796875-0.0966796875q-0.580078125,1.49853515625-0.942626953125,2.4169921875t-0.797607421875,1.474365234375t-1.087646484375,0.797607421875t-1.861083984375,0.24169921875q-0.193359375,0-0.6767578125-0.04833984375t-1.039306640625-0.193359375t-0.942626953125-0.38671875t-0.38671875-0.72509765625z M268.88377929688,111.26318359375q0-0.4833984375,0.749267578125-0.82177734375t1.78857421875-0.4833984375t1.98193359375-0.24169921875t1.426025390625-0.0966796875q0.193359375-1.30517578125,0.555908203125-3.52880859375t0.894287109375-4.761474609375t1.329345703125-5.099853515625t1.93359375-4.640625t2.682861328125-3.407958984375t3.62548828125-1.329345703125l-0.0966796875,0q0.6767578125-0.0966796875,1.329345703125-0.14501953125t1.329345703125-0.04833984375q1.59521484375,0,3.456298828125,0.62841796875t3.456298828125,1.764404296875t2.682861328125,2.731201171875t1.087646484375,3.3837890625q0,1.40185546875-0.700927734375,3.021240234375t-2.441162109375,1.619384765625q-0.580078125,0-1.184326171875-0.2900390625t-1.135986328125-0.62841796875q0.193359375-1.11181640625,0.193359375-2.2236328125q0-0.580078125-0.04833984375-1.11181640625q-0.14501953125-1.69189453125-0.72509765625-2.972900390625t-1.667724609375-2.0302734375t-2.586181640625-0.555908203125q-1.98193359375,0.2900390625-2.972900390625,2.4169921875t-1.377685546875,5.051513671875t-0.4833984375,5.94580078125t-0.38671875,4.906494140625q2.27197265625,0.193359375,3.843017578125,0.193359375l3.939697265625,0q0.38671875,0,1.329345703125,0.04833984375t1.8369140625,0.193359375t1.59521484375,0.507568359375t0.700927734375,0.942626953125q0,0.4833984375-0.38671875,0.845947265625t-0.942626953125,0.507568359375t-1.16015625,0.193359375t-0.990966796875,0.04833984375q-1.69189453125,0-2.876220703125-0.14501953125t-2.27197265625-0.265869140625t-2.27197265625-0.120849609375t-2.779541015625,0.33837890625q-0.4833984375,5.36572265625-0.7734375,10.634765625t-0.2900390625,10.634765625q0,8.4111328125,0.53173828125,16.48388671875t1.93359375,16.38720703125q0.193359375,0.7734375,0.33837890625,1.764404296875t0.14501953125,1.909423828125q0,0.8701171875-0.53173828125,1.426025390625t-1.329345703125,0.797607421875t-1.6435546875,0.33837890625t-1.522705078125,0.0966796875q-2.75537109375,0-3.8671875-0.845947265625t-1.59521484375-3.407958984375q-1.20849609375-6.81591796875-1.546875-13.752685546875t-0.33837890625-13.994384765625q0-6.91259765625,0.507568359375-13.801025390625t1.281005859375-13.704345703125q-0.38671875,0-1.329345703125,0.04833984375t-1.88525390625,0t-1.6435546875-0.33837890625t-0.700927734375-1.01513671875z M304.54263183594,120.689453125q0-1.40185546875,0.797607421875-1.8369140625t2.006103515625-0.43505859375q1.98193359375,0,3.021240234375,0.749267578125t1.039306640625,2.634521484375q0,2.27197265625,0.33837890625,5.679931640625t0.990966796875,6.62255859375t1.546875,5.534912109375t1.861083984375,2.3203125q1.78857421875,0,3.166259765625-2.75537109375t2.4169921875-6.767578125t1.78857421875-8.628662109375t1.039306640625-8.241943359375q0.193359375-1.98193359375,0.942626953125-2.876220703125t2.731201171875-0.894287109375q2.27197265625,0,3.311279296875,1.88525390625t1.329345703125,4.640625q0.24169921875,2.36865234375,0.24169921875,4.9306640625l0,0.82177734375l0,1.93359375q0,1.8369140625,0.04833984375,3.287109375l1.40185546875,29.63232421875l0.193359375,4.9306640625q0.0966796875,0.6767578125,0.14501953125,1.281005859375t0.04833984375,1.281005859375q0,2.75537109375-1.184326171875,3.552978515625t-3.843017578125,0.797607421875q-0.580078125,0-1.474365234375-0.0966796875t-1.740234375-0.38671875t-1.4501953125-0.797607421875t-0.604248046875-1.281005859375l0.193359375-0.4833984375q0.24169921875-2.900390625,0.24169921875-6.0908203125l0-1.01513671875q-0.04833984375-3.7705078125-0.24169921875-7.6376953125t-0.43505859375-7.734375t-0.24169921875-7.4443359375q-0.6767578125,1.49853515625-1.571044921875,3.09375t-2.07861328125,2.876220703125t-2.682861328125,2.126953125t-3.3837890625,0.845947265625q-2.75537109375,0-4.5439453125-1.4501953125t-2.779541015625-3.7705078125t-1.426025390625-5.196533203125t-0.580078125-5.75244140625t-0.193359375-5.486572265625t-0.38671875-4.39892578125z"/><path fill="#" d=""/></svg>
